<svg width="22" height="25" viewBox="0 0 22 25" fill="none" xmlns="http://www.w3.org/2000/svg">
<path d="M9.00065 2.66659C8.6701 2.66659 8.39321 2.55458 8.16998 2.33059C7.94598 2.10736 7.83398 1.83047 7.83398 1.49992C7.83398 1.16936 7.94598 0.892085 8.16998 0.668085C8.39321 0.444863 8.6701 0.333252 9.00065 0.333252H13.6673C13.9979 0.333252 14.2752 0.444863 14.4992 0.668085C14.7224 0.892085 14.834 1.16936 14.834 1.49992C14.834 1.83047 14.7224 2.10736 14.4992 2.33059C14.2752 2.55458 13.9979 2.66659 13.6673 2.66659H9.00065ZM11.334 15.4999C11.6645 15.4999 11.9418 15.3879 12.1658 15.1639C12.389 14.9407 12.5007 14.6638 12.5007 14.3333V9.66658C12.5007 9.33603 12.389 9.05875 12.1658 8.83475C11.9418 8.61153 11.6645 8.49992 11.334 8.49992C11.0034 8.49992 10.7265 8.61153 10.5033 8.83475C10.2793 9.05875 10.1673 9.33603 10.1673 9.66658V14.3333C10.1673 14.6638 10.2793 14.9407 10.5033 15.1639C10.7265 15.3879 11.0034 15.4999 11.334 15.4999ZM11.334 24.8333C9.89509 24.8333 8.53865 24.5564 7.26465 24.0026C5.99143 23.448 4.87843 22.6944 3.92565 21.7416C2.97287 20.7888 2.21921 19.6758 1.66465 18.4026C1.11087 17.1286 0.833984 15.7721 0.833984 14.3333C0.833984 12.8944 1.11087 11.5379 1.66465 10.2639C2.21921 8.9907 2.97287 7.8777 3.92565 6.92492C4.87843 5.97214 5.99143 5.21886 7.26465 4.66508C8.53865 4.11053 9.89509 3.83325 11.334 3.83325C12.5395 3.83325 13.6965 4.0277 14.8048 4.41658C15.9132 4.80547 16.9534 5.36936 17.9256 6.10825L18.7715 5.26242C18.9854 5.04853 19.2479 4.94159 19.559 4.94159C19.8701 4.94159 20.1423 5.05825 20.3757 5.29158C20.5895 5.50547 20.6965 5.7777 20.6965 6.10825C20.6965 6.43881 20.5895 6.71103 20.3757 6.92492L19.559 7.74158C20.2979 8.71381 20.8618 9.75408 21.2507 10.8624C21.6395 11.9708 21.834 13.1277 21.834 14.3333C21.834 15.7721 21.5571 17.1286 21.0033 18.4026C20.4488 19.6758 19.6951 20.7888 18.7423 21.7416C17.7895 22.6944 16.6765 23.448 15.4033 24.0026C14.1293 24.5564 12.7729 24.8333 11.334 24.8333ZM11.334 22.4999C13.5895 22.4999 15.5145 21.7027 17.109 20.1083C18.7034 18.5138 19.5007 16.5888 19.5007 14.3333C19.5007 12.0777 18.7034 10.1527 17.109 8.55825C15.5145 6.96381 13.5895 6.16658 11.334 6.16658C9.07843 6.16658 7.15343 6.96381 5.55898 8.55825C3.96454 10.1527 3.16732 12.0777 3.16732 14.3333C3.16732 16.5888 3.96454 18.5138 5.55898 20.1083C7.15343 21.7027 9.07843 22.4999 11.334 22.4999Z" fill="white"/>
</svg>
