<svg id="Component_18_1" data-name="Component 18 – 1" xmlns="http://www.w3.org/2000/svg" xmlns:xlink="http://www.w3.org/1999/xlink" width="175.517" height="200.875" viewBox="0 0 175.517 200.875">
  <defs>
    <radialGradient id="radial-gradient" cx="0.5" cy="0.5" r="0.592" gradientTransform="translate(0 0)" gradientUnits="objectBoundingBox">
      <stop offset="0" stop-color="#2da38f"/>
      <stop offset="1" stop-color="#054479" stop-opacity="0"/>
    </radialGradient>
  </defs>
  <path id="Path_13642" data-name="Path 13642" d="M147.758,0H53.117A5.8,5.8,0,0,0,48.1,2.9L.776,84.862a5.8,5.8,0,0,0,0,5.8L48.1,172.62a5.8,5.8,0,0,0,5.02,2.9h94.641a5.8,5.8,0,0,0,5.02-2.9L200.1,90.659a5.8,5.8,0,0,0,0-5.8L152.778,2.9a5.8,5.8,0,0,0-5.02-2.9" transform="translate(-0.002 200.875) rotate(-90)" opacity="0.23" fill="url(#radial-gradient)"/>
  <path id="Path_13641" data-name="Path 13641" d="M125.392,150.951H45.077a6.939,6.939,0,0,1-5.992-3.46L-1.073,77.936a6.939,6.939,0,0,1,0-6.919L39.084,1.462A6.939,6.939,0,0,1,45.077-2h80.315a6.938,6.938,0,0,1,5.992,3.46l40.158,69.555a6.938,6.938,0,0,1,0,6.919l-40.158,69.555A6.938,6.938,0,0,1,125.392,150.951ZM45.077,2a2.928,2.928,0,0,0-2.528,1.46L2.391,73.017a2.927,2.927,0,0,0,0,2.919l40.158,69.555a2.928,2.928,0,0,0,2.528,1.46h80.315a2.927,2.927,0,0,0,2.528-1.46l40.158-69.555a2.927,2.927,0,0,0,0-2.919L127.92,3.462A2.927,2.927,0,0,0,125.392,2Z" transform="translate(13.282 185.672) rotate(-90)" fill="#2ea38f"/>
  <path id="Path_13643" data-name="Path 13643" d="M103.224,0H37.107A4.05,4.05,0,0,0,33.6,2.027L.542,59.285a4.05,4.05,0,0,0,0,4.05L33.6,120.593a4.05,4.05,0,0,0,3.507,2.025h66.116a4.05,4.05,0,0,0,3.507-2.025l33.058-57.258a4.05,4.05,0,0,0,0-4.05L106.731,2.027A4.05,4.05,0,0,0,103.224,0" transform="translate(26.448 170.603) rotate(-90)" fill="#fff"/>
</svg>
