<svg width="24" height="21" viewBox="0 0 24 21" fill="none" xmlns="http://www.w3.org/2000/svg">
<path d="M10.9069 2.74875C9.15384 2.94753 7.49112 3.63191 6.10607 4.72479L7.30482 5.925C7.49802 6.13234 7.6032 6.40657 7.5982 6.68993C7.5932 6.97328 7.47841 7.24364 7.27802 7.44403C7.07762 7.64443 6.80727 7.75921 6.52391 7.76421C6.24056 7.76921 5.96632 7.66403 5.75898 7.47083L4.5544 6.26771C3.53062 7.55185 2.86451 9.08381 2.62357 10.7083H5.07357C5.36365 10.7083 5.64185 10.8236 5.84697 11.0287C6.05208 11.2338 6.16732 11.512 6.16732 11.8021C6.16732 12.0922 6.05208 12.3704 5.84697 12.5755C5.64185 12.7806 5.36365 12.8958 5.07357 12.8958H2.55794C2.785 15.2363 3.85469 17.4146 5.56794 19.0252C5.77458 19.2248 5.89439 19.4977 5.90148 19.7849C5.90858 20.0721 5.80239 20.3505 5.60586 20.5601C5.40933 20.7697 5.13825 20.8935 4.85118 20.9048C4.56411 20.9161 4.28412 20.814 4.07169 20.6206C1.82586 18.5162 0.333984 15.4129 0.333984 12.0835C0.333984 5.67854 5.56503 0.5 12.0007 0.5C18.4363 0.5 23.6673 5.67708 23.6673 12.0835C23.6644 13.682 23.3364 15.2631 22.7031 16.7308C22.0698 18.1984 21.1445 19.5219 19.9836 20.6206C19.7711 20.814 19.4911 20.9161 19.2041 20.9048C18.917 20.8935 18.6459 20.7697 18.4494 20.5601C18.2529 20.3505 18.1467 20.0721 18.1538 19.7849C18.1609 19.4977 18.2807 19.2248 18.4873 19.0252C20.1887 17.4119 21.2407 15.2316 21.4448 12.8958H18.9277C18.6377 12.8958 18.3595 12.7806 18.1543 12.5755C17.9492 12.3704 17.834 12.0922 17.834 11.8021C17.834 11.512 17.9492 11.2338 18.1543 11.0287C18.3595 10.8236 18.6377 10.7083 18.9277 10.7083H21.3777C20.7594 6.52875 17.3629 3.23438 13.0944 2.74875V4.51042C13.0944 4.8005 12.9792 5.0787 12.774 5.28381C12.5689 5.48893 12.2907 5.60417 12.0007 5.60417C11.7106 5.60417 11.4324 5.48893 11.2273 5.28381C11.0221 5.0787 10.9069 4.8005 10.9069 4.51042V2.74875ZM17.0304 6.05188C17.163 5.94662 17.328 5.89075 17.4972 5.89382C17.6664 5.89689 17.8292 5.95872 17.9579 6.06872C18.0865 6.17871 18.1728 6.33001 18.2021 6.49669C18.2314 6.66337 18.2018 6.83505 18.1184 6.98229L17.9579 7.26812C17.3715 8.30369 16.7813 9.33717 16.1875 10.3685C15.7128 11.1939 15.2315 12.0154 14.7438 12.8331C14.561 13.1408 14.3743 13.4461 14.1838 13.749C14.0379 13.9779 13.895 14.1952 13.79 14.3177C13.4133 14.759 12.8767 15.0326 12.2983 15.0783C11.7198 15.1239 11.147 14.938 10.7057 14.5612C10.2643 14.1845 9.99076 13.6479 9.94508 13.0695C9.89941 12.4911 10.0854 11.9182 10.4621 11.4769C10.5671 11.3544 10.7582 11.1779 10.9623 10.9985C11.1811 10.8046 11.4625 10.5669 11.779 10.3C12.4148 9.76917 13.2111 9.11875 13.9869 8.49167C14.9123 7.7431 15.8408 6.99837 16.7723 6.2575L17.0304 6.05333V6.05188Z" fill="white"/>
</svg>
