<svg width="68" height="68" viewBox="0 0 68 68" fill="none" xmlns="http://www.w3.org/2000/svg">
<path fill-rule="evenodd" clip-rule="evenodd" d="M0.666016 34.0194C0.666016 15.6209 15.6274 0.666748 33.9994 0.666748C52.3713 0.666748 67.3327 15.6209 67.3327 34.0194C67.3327 52.3792 52.3713 67.3334 33.9994 67.3334C15.6274 67.3334 0.666016 52.3792 0.666016 34.0194ZM46.2259 37.3929C46.5798 37.0392 47.0302 36.4924 47.1268 36.3638C47.6416 35.6885 47.899 34.8523 47.899 34.0194C47.899 33.0835 47.6094 32.2152 47.0624 31.5077C47.0176 31.4629 46.9298 31.3674 46.8154 31.2429C46.6014 31.0099 46.2942 30.6755 46.0006 30.3821C43.3623 27.5521 36.4768 22.9211 32.8732 21.5061C32.3262 21.2842 30.9427 20.7986 30.2027 20.7664C29.4948 20.7664 28.8192 20.9272 28.1757 21.2488C27.3713 21.6991 26.7278 22.4066 26.3739 23.2427C26.1486 23.8216 25.7947 25.5582 25.7947 25.5904C25.4408 27.4878 25.2477 30.5751 25.2477 33.984C25.2477 37.2353 25.4408 40.1908 25.7304 42.1204C25.7383 42.1283 25.766 42.2663 25.809 42.4807C25.9397 43.1325 26.212 44.4903 26.5026 45.0469C27.2104 46.3976 28.5939 47.2337 30.074 47.2337H30.2027C31.1679 47.2016 33.195 46.3654 33.195 46.3333C36.6055 44.9182 43.3301 40.5124 46.0328 37.5859L46.2259 37.3929Z" fill="url(#paint0_linear_2812_5506)"/>
<defs>
<linearGradient id="paint0_linear_2812_5506" x1="67.3327" y1="67.3334" x2="-11.9947" y2="44.3332" gradientUnits="userSpaceOnUse">
<stop stop-color="#06C149"/>
<stop offset="1" stop-color="#33EB75"/>
</linearGradient>
</defs>
</svg>
