<svg width="6" height="20" viewBox="0 0 6 20" fill="none" xmlns="http://www.w3.org/2000/svg">
<path d="M2.99935 7.66675C1.71602 7.66675 0.666016 8.71675 0.666016 10.0001C0.666016 11.2834 1.71602 12.3334 2.99935 12.3334C4.28268 12.3334 5.33268 11.2834 5.33268 10.0001C5.33268 8.71675 4.28268 7.66675 2.99935 7.66675ZM2.99935 0.666748C1.71602 0.666748 0.666016 1.71675 0.666016 3.00008C0.666016 4.28342 1.71602 5.33342 2.99935 5.33342C4.28268 5.33342 5.33268 4.28342 5.33268 3.00008C5.33268 1.71675 4.28268 0.666748 2.99935 0.666748ZM2.99935 14.6667C1.71602 14.6667 0.666016 15.7167 0.666016 17.0001C0.666016 18.2834 1.71602 19.3334 2.99935 19.3334C4.28268 19.3334 5.33268 18.2834 5.33268 17.0001C5.33268 15.7167 4.28268 14.6667 2.99935 14.6667Z" fill="white"/>
</svg>
