<svg width="24" height="20" viewBox="0 0 24 20" fill="none" xmlns="http://www.w3.org/2000/svg">
<path d="M1.16667 19.3333H1.18034C1.82292 19.3333 2.34701 18.8092 2.34701 18.1667C2.34701 17.5241 1.82292 17 1.18034 17H1.16667C0.524089 17 0 17.5241 0 18.1667C0 18.8092 0.524089 19.3333 1.16667 19.3333Z" fill="white"/>
<path d="M7 18.1668C7 14.9448 4.38867 12.3335 1.16667 12.3335C0.524089 12.3335 0 12.8576 0 13.5002C0 14.1427 0.524089 14.6668 1.16667 14.6668C3.09896 14.6714 4.66211 16.2345 4.66667 18.1668C4.66667 18.8094 5.19076 19.3335 5.83333 19.3335C6.47591 19.3335 7 18.8094 7 18.1668Z" fill="white"/>
<path d="M11.6667 18.1667C11.6667 12.3653 6.9681 7.66675 1.16667 7.66675C0.524089 7.66675 0 8.19084 0 8.83341C0 9.47599 0.524089 10.0001 1.16667 10.0001C3.42708 10.0001 5.45964 10.9115 6.94076 12.3927C8.42188 13.8738 9.33333 15.9063 9.33333 18.1667C9.33333 18.8093 9.85742 19.3334 10.5 19.3334C11.1426 19.3334 11.6667 18.8093 11.6667 18.1667Z" fill="white"/>
<path d="M15.1669 19.3334H18.6669C21.2464 19.3334 23.3336 17.2462 23.3336 14.6667V5.33342C23.3336 2.75399 21.2464 0.666748 18.6669 0.666748H4.66694H4.65782C2.69819 0.684977 0.957305 1.92912 0.301055 3.77938C0.0868619 4.3855 0.405872 5.05542 1.01199 5.26961C1.61811 5.48381 2.28803 5.1648 2.50223 4.55868C2.83035 3.63355 3.70079 3.01375 4.68061 3.00464H4.6715H18.6715C19.9612 3.0092 21.0003 4.04826 21.0048 5.33797V14.6713C21.0003 15.961 19.9612 17.0001 18.6715 17.0046H15.1715C14.5289 17.0046 14.0048 17.5287 14.0048 18.1713C14.0003 18.8093 14.5244 19.3334 15.1669 19.3334Z" fill="white"/>
</svg>
